<svg width="132" height="40" viewBox="0 0 132 40" fill="none" xmlns="http://www.w3.org/2000/svg">
<path d="M40.3471 18.0549L38.8838 16.6091L35.2124 12.9817L32.5519 10.3531C32.3032 10.1123 31.9689 9.97745 31.6207 9.97745C31.2725 9.97745 30.9382 10.1123 30.6896 10.3531L28.0291 12.9817L24.5705 16.2937L28.2419 20L30.9024 17.3714C30.9818 17.2903 31.0769 17.2259 31.182 17.1818C31.2871 17.1378 31.4001 17.1151 31.5143 17.1151C31.6285 17.1151 31.7415 17.1378 31.8466 17.1818C31.9518 17.2259 32.0468 17.2903 32.1262 17.3714L34.5472 19.7634C34.6301 19.8441 34.6959 19.9403 34.7408 20.0463C34.7857 20.1524 34.8088 20.2662 34.8088 20.3811C34.8088 20.4961 34.7857 20.6099 34.7408 20.7159C34.6959 20.822 34.6301 20.9182 34.5472 20.9989L25.5815 29.6206C25.4482 29.7444 25.2722 29.8134 25.0893 29.8134C24.9064 29.8134 24.7303 29.7444 24.5971 29.6206L21.9366 26.992C21.8113 26.8604 21.7415 26.6864 21.7415 26.5057C21.7415 26.325 21.8113 26.1511 21.9366 26.0194L24.7833 23.1806L21.2183 19.6057L18.5579 22.2343C18.3909 22.3858 18.1726 22.4698 17.9459 22.4698C17.7193 22.4698 17.5009 22.3858 17.334 22.2343L14.9396 20C14.8576 19.9216 14.7923 19.8276 14.7477 19.7238C14.7032 19.6199 14.6802 19.5082 14.6802 19.3954C14.6802 19.2826 14.7032 19.171 14.7477 19.0671C14.7923 18.9632 14.8576 18.8693 14.9396 18.7909L28.0025 5.85829L25.342 3.22972C25.2729 3.15587 25.1921 3.09371 25.1026 3.04572H24.8898H23.9852C23.6762 3.1185 23.3975 3.28374 23.1871 3.51886L10.5499 15.6891L9.1132 17.1086C8.82201 17.3944 8.59092 17.7343 8.43322 18.1088C8.27552 18.4832 8.19434 18.8847 8.19434 19.2903C8.19434 19.6958 8.27552 20.0974 8.43322 20.4718C8.59092 20.8463 8.82201 21.1862 9.1132 21.472L10.5499 22.9177L14.2213 26.5189L17.8661 30.1463L21.511 33.7211L24.1714 36.3497C24.4246 36.5922 24.7633 36.7278 25.1159 36.7278C25.4685 36.7278 25.8072 36.5922 26.0604 36.3497L38.8838 23.8377L40.3471 22.392C40.9207 21.8124 41.2419 21.034 41.2419 20.2234C41.2419 19.4128 40.9207 18.6344 40.3471 18.0549Z" fill="#00C362"/>
<path d="M57.906 13.0343V25.6251C57.906 25.904 57.7938 26.1714 57.5943 26.3686C57.3947 26.5658 57.124 26.6766 56.8418 26.6766C56.701 26.6802 56.561 26.6555 56.4303 26.6039C56.2995 26.5523 56.1807 26.475 56.0811 26.3767C55.9816 26.2783 55.9033 26.1609 55.8512 26.0317C55.799 25.9025 55.7739 25.7642 55.7776 25.6251V20.368H49.1796V25.6251C49.1796 25.904 49.0675 26.1714 48.8679 26.3686C48.6684 26.5658 48.3977 26.6766 48.1155 26.6766C47.8332 26.6766 47.5625 26.5658 47.363 26.3686C47.1634 26.1714 47.0513 25.904 47.0513 25.6251V13.0343C47.0513 12.7554 47.1634 12.488 47.363 12.2908C47.5625 12.0936 47.8332 11.9829 48.1155 11.9829C48.3977 11.9829 48.6684 12.0936 48.8679 12.2908C49.0675 12.488 49.1796 12.7554 49.1796 13.0343V18.2914H55.7776V13.0343C55.7739 12.8952 55.799 12.7569 55.8512 12.6277C55.9033 12.4985 55.9816 12.3811 56.0811 12.2828C56.1807 12.1844 56.2995 12.1071 56.4303 12.0555C56.561 12.004 56.701 11.9792 56.8418 11.9829C57.124 11.9829 57.3947 12.0936 57.5943 12.2908C57.7938 12.488 57.906 12.7554 57.906 13.0343Z" fill="#232323"/>
<path d="M69.4792 26.6503C69.1909 26.7072 68.8916 26.662 68.6338 26.5226C68.3759 26.3832 68.176 26.1585 68.0691 25.888L67.2976 23.7326H62.1097L61.2051 25.888C61.1602 26.1153 61.0325 26.3184 60.8462 26.4589C60.6598 26.5993 60.4279 26.6674 60.1941 26.6503H59.9547C59.6776 26.5492 59.4468 26.3525 59.305 26.0964C59.1632 25.8403 59.1199 25.5423 59.1832 25.2571L63.7326 12.7189C63.8091 12.4991 63.9524 12.308 64.1428 12.1716C64.3332 12.0352 64.5616 11.9601 64.7967 11.9566C65.0213 11.9647 65.2374 12.0428 65.4142 12.1798C65.5911 12.3167 65.7195 12.5054 65.7811 12.7189L70.1177 25.2571C70.1727 25.3896 70.1997 25.5318 70.1971 25.675C70.1944 25.8182 70.1623 25.9593 70.1025 26.0897C70.0427 26.2202 69.9566 26.3372 69.8494 26.4336C69.7422 26.53 69.6162 26.6037 69.4792 26.6503ZM66.6591 21.6297L64.7967 16.2411L62.828 21.6297H66.6591Z" fill="#232323"/>
<path d="M85.3089 25.7829L83.4998 17.0034L80.1742 25.888C80.1113 26.1085 79.9772 26.3027 79.7923 26.441C79.6074 26.5793 79.3818 26.6542 79.1499 26.6542C78.918 26.6542 78.6925 26.5793 78.5076 26.441C78.3227 26.3027 78.1886 26.1085 78.1257 25.888L75.1459 17.3714L73.4698 25.7829C73.4678 25.9344 73.4327 26.0837 73.3669 26.2206C73.301 26.3574 73.206 26.4786 73.0883 26.5758C72.9706 26.673 72.8331 26.744 72.6851 26.7837C72.5371 26.8235 72.3821 26.8312 72.2308 26.8063C72.0795 26.7814 71.9354 26.7244 71.8085 26.6394C71.6815 26.5543 71.5747 26.4432 71.4953 26.3135C71.4159 26.1839 71.3658 26.0388 71.3484 25.8882C71.331 25.7376 71.3468 25.5851 71.3947 25.4411L73.5497 12.7714C73.5861 12.5342 73.7036 12.3165 73.8826 12.1544C74.0616 11.9923 74.2913 11.8955 74.5337 11.8802C74.776 11.8648 75.0163 11.9318 75.2148 12.07C75.4133 12.2082 75.558 12.4094 75.6248 12.64L79.0834 22.2343L82.675 12.64C82.7412 12.416 82.8826 12.2209 83.0761 12.0871C83.2696 11.9533 83.5036 11.8887 83.7392 11.904C83.9773 11.9072 84.2066 11.9934 84.3866 12.1473C84.5667 12.3011 84.686 12.5129 84.7236 12.7451L87.3841 25.3886C87.4322 25.6596 87.3736 25.9386 87.2203 26.1683C87.0669 26.398 86.8304 26.561 86.5593 26.624H86.3465C86.1047 26.6137 85.8728 26.5262 85.6856 26.3745C85.4985 26.2228 85.3663 26.0152 85.3089 25.7829Z" fill="#232323"/>
<path d="M100.447 25.6251C100.441 25.8975 100.33 26.1574 100.137 26.3525C99.945 26.5476 99.6848 26.6634 99.4094 26.6766H89.7519C89.5507 26.6755 89.354 26.6182 89.1845 26.5112C89.015 26.4042 88.8796 26.2519 88.7941 26.072C88.6843 25.9083 88.6257 25.7163 88.6257 25.52C88.6257 25.3236 88.6843 25.1316 88.7941 24.968L97.414 14.0068H89.8051C89.5297 13.9936 89.2695 13.8778 89.077 13.6828C88.8845 13.4877 88.7739 13.2278 88.7675 12.9554C88.7674 12.6811 88.8759 12.4175 89.0698 12.2211C89.2636 12.0246 89.5275 11.9109 89.8051 11.904H99.4094C99.6113 11.9018 99.8094 11.9578 99.9795 12.0652C100.15 12.1726 100.284 12.3267 100.367 12.5086C100.471 12.6745 100.526 12.8656 100.526 13.0606C100.526 13.2555 100.471 13.4466 100.367 13.6126L91.9601 24.5737H99.5158C99.7744 24.6059 100.012 24.7307 100.184 24.9245C100.355 25.1183 100.449 25.3676 100.447 25.6251Z" fill="#232323"/>
<path d="M108.455 20.2629L111.435 25.0731C111.507 25.1921 111.554 25.324 111.575 25.4612C111.595 25.5984 111.587 25.7382 111.553 25.8726C111.518 26.0069 111.457 26.1332 111.373 26.2441C111.289 26.3551 111.183 26.4484 111.062 26.5189C110.904 26.6222 110.719 26.6771 110.53 26.6766C110.345 26.676 110.163 26.63 110.001 26.5428C109.838 26.4557 109.7 26.33 109.599 26.1771L106.06 20.4469H103.905V25.704C103.899 25.9783 103.783 26.239 103.585 26.4305C103.386 26.6221 103.119 26.7292 102.841 26.7291C102.703 26.7327 102.565 26.7087 102.436 26.6588C102.307 26.6088 102.19 26.5339 102.09 26.4383C101.991 26.3428 101.912 26.2286 101.859 26.1025C101.805 25.9764 101.777 25.8409 101.777 25.704V13.0606C101.801 12.8175 101.909 12.5901 102.084 12.4174C102.259 12.2448 102.489 12.1376 102.735 12.1143H107.258C108.369 12.1343 109.429 12.5775 110.217 13.3513C111.005 14.1252 111.461 15.1699 111.488 16.2674C111.449 17.158 111.139 18.0163 110.598 18.7295C110.057 19.4426 109.309 19.9771 108.455 20.2629ZM109.492 16.1886C109.486 15.9089 109.423 15.6334 109.308 15.3777C109.193 15.122 109.029 14.8911 108.824 14.6982C108.619 14.5054 108.377 14.3544 108.113 14.2538C107.849 14.1532 107.567 14.105 107.284 14.112H103.905V18.344H107.284C107.865 18.344 108.423 18.1178 108.836 17.7143C109.25 17.3108 109.485 16.7626 109.492 16.1886Z" fill="#232323"/>
<path d="M122.795 12.8766V15.1372C122.818 16.3745 122.398 17.5801 121.61 18.5417C120.821 19.5033 119.715 20.1594 118.485 20.3943V25.6514C118.509 25.8016 118.5 25.9552 118.459 26.1017C118.417 26.2481 118.344 26.3838 118.244 26.4995C118.144 26.6152 118.02 26.7082 117.88 26.7719C117.74 26.8356 117.588 26.8686 117.434 26.8686C117.28 26.8686 117.128 26.8356 116.988 26.7719C116.848 26.7082 116.724 26.6152 116.624 26.4995C116.525 26.3838 116.451 26.2481 116.41 26.1017C116.368 25.9552 116.359 25.8016 116.383 25.6514V20.3943C115.158 20.1539 114.058 19.4956 113.275 18.5345C112.492 17.5734 112.076 16.3707 112.1 15.1372V12.8766C112.1 12.6047 112.209 12.344 112.404 12.1517C112.598 11.9594 112.862 11.8514 113.137 11.8514C113.415 11.8514 113.682 11.9585 113.881 12.15C114.08 12.3416 114.195 12.6023 114.202 12.8766V15.1372C114.202 15.9877 114.544 16.8033 115.152 17.4047C115.761 18.0061 116.587 18.344 117.447 18.344C118.308 18.344 119.134 18.0061 119.742 17.4047C120.351 16.8033 120.693 15.9877 120.693 15.1372V12.8766C120.693 12.6047 120.802 12.344 120.997 12.1517C121.192 11.9594 121.456 11.8514 121.731 11.8514C122.006 11.8578 122.269 11.967 122.467 12.1572C122.664 12.3474 122.782 12.6045 122.795 12.8766Z" fill="#232323"/>
</svg>
